HIERARCHY
ROOT Hips
{
	OFFSET 0.000000 0.000000 0.000000
	CHANNELS 6 Xposition Yposition Zposition Zrotation Yrotation Xrotation 
	JOINT LHipJoint
	{
		OFFSET 0.000000 0.000000 0.000000
		CHANNELS 3 Zrotation Yrotation Xrotation
		JOINT LeftUpLeg
		{
			OFFSET 1.363060 -1.794630 0.839290
			CHANNELS 3 Zrotation Yrotation Xrotation
			JOINT LeftLeg
			{
				OFFSET 2.448110 -6.726130 0.000000
				CHANNELS 3 Zrotation Yrotation Xrotation
				JOINT LeftFoot
				{
					OFFSET 2.562200 -7.039590 0.000000
					CHANNELS 3 Zrotation Yrotation Xrotation
					JOINT LeftToeBase
					{
						OFFSET 0.157640 -0.433110 2.322550
						CHANNELS 3 Zrotation Yrotation Xrotation
						End Site
						{
							OFFSET 0.000000 0.000000 0.000000
						}
					}
				}
			}
		}
	}
	JOINT RHipJoint
	{
		OFFSET 0.000000 0.000000 0.000000
		CHANNELS 3 Zrotation Yrotation Xrotation
		JOINT RightUpLeg
		{
			OFFSET -1.305520 -1.794630 0.839290
			CHANNELS 3 Zrotation Yrotation Xrotation
			JOINT RightLeg
			{
				OFFSET -2.542530 -6.985550 0.000000
				CHANNELS 3 Zrotation Yrotation Xrotation
				JOINT RightFoot
				{
					OFFSET -2.568260 -7.056230 0.000000
					CHANNELS 3 Zrotation Yrotation Xrotation
					JOINT RightToeBase
					{
						OFFSET -0.164730 -0.452590 2.363150
						CHANNELS 3 Zrotation Yrotation Xrotation
						End Site
						{
							OFFSET 0.000000 0.000000 0.000000
						}
					}
				}
			}
		}
	}
	JOINT LowerBack
	{
		OFFSET 0.000000 0.000000 0.000000
		CHANNELS 3 Zrotation Yrotation Xrotation
		JOINT Spine
		{
			OFFSET 0.028270 2.035590 -0.193380
			CHANNELS 3 Zrotation Yrotation Xrotation
			JOINT Spine1
			{
				OFFSET 0.056720 2.048850 -0.042750
				CHANNELS 3 Zrotation Yrotation Xrotation
				JOINT Neck
				{
					OFFSET 0.000000 0.000000 0.000000
					CHANNELS 3 Zrotation Yrotation Xrotation
					JOINT Neck1
					{
						OFFSET -0.054170 1.746240 0.172020
						CHANNELS 3 Zrotation Yrotation Xrotation
						JOINT Head
						{
							OFFSET 0.104070 1.761360 -0.123970
							CHANNELS 3 Zrotation Yrotation Xrotation
							End Site
							{
								OFFSET 0.000000 0.000000 0.000000
							}
						}
					}
				}
				JOINT LeftShoulder
				{
					OFFSET 0.000000 0.000000 0.000000
					CHANNELS 3 Zrotation Yrotation Xrotation
					JOINT LeftArm
					{
						OFFSET 3.362410 1.200890 -0.311210
						CHANNELS 3 Zrotation Yrotation Xrotation
						JOINT LeftForeArm
						{
							OFFSET 4.983000 -0.000000 -0.000000
							CHANNELS 3 Zrotation Yrotation Xrotation
							JOINT LeftHand
							{
								OFFSET 3.483560 -0.000000 -0.000000
								CHANNELS 3 Zrotation Yrotation Xrotation
								JOINT LeftFingerBase
								{
									OFFSET 0.000000 0.000000 0.000000
									CHANNELS 3 Zrotation Yrotation Xrotation
									JOINT LeftHandIndex1
									{
										OFFSET 0.715260 -0.000000 -0.000000
										CHANNELS 3 Zrotation Yrotation Xrotation
										End Site
										{
											OFFSET 0.000000 0.000000 0.000000
										}
									}
								}
								JOINT LThumb
								{
									OFFSET 0.000000 0.000000 0.000000
									CHANNELS 3 Zrotation Yrotation Xrotation
									End Site
									{
										OFFSET 0.000000 0.000000 0.000000
									}
								}
							}
						}
					}
				}
				JOINT RightShoulder
				{
					OFFSET 0.000000 0.000000 0.000000
					CHANNELS 3 Zrotation Yrotation Xrotation
					JOINT RightArm
					{
						OFFSET -3.136600 1.374050 -0.404650
						CHANNELS 3 Zrotation Yrotation Xrotation
						JOINT RightForeArm
						{
							OFFSET -5.241900 -0.000000 -0.000000
							CHANNELS 3 Zrotation Yrotation Xrotation
							JOINT RightHand
							{
								OFFSET -3.444170 -0.000000 -0.000000
								CHANNELS 3 Zrotation Yrotation Xrotation
								JOINT RightFingerBase
								{
									OFFSET 0.000000 0.000000 0.000000
									CHANNELS 3 Zrotation Yrotation Xrotation
									JOINT RightHandIndex1
									{
										OFFSET -0.622530 -0.000000 -0.000000
										CHANNELS 3 Zrotation Yrotation Xrotation
										End Site
										{
											OFFSET 0.000000 0.000000 0.000000
										}
									}
								}
								JOINT RThumb
								{
									OFFSET 0.000000 0.000000 0.000000
									CHANNELS 3 Zrotation Yrotation Xrotation
									End Site
									{
										OFFSET 0.000000 0.000000 0.000000
									}
								}
							}
						}
					}
				}
			}
		}
	}
}
MOTION
Frames: 9
Frame Time: 0.008333
-11.381302 17.906148 -15.437644 2.684778 -1.922712 1.345578 -2.023674 2.335579 3.418093 -21.424953 -3.640889 7.456658 1.388092 8.565395 27.232949 0.581205 -2.733887 18.700415 1.024200 -6.438000 -18.060600 0.393263 -1.313850 0.621447 18.114051 6.958651 -22.320906 -1.378115 -8.358236 24.275871 0.087841 -3.140185 8.866970 -0.225200 -3.054300 8.430100 -3.340332 -0.772907 8.711806 1.758356 -1.220033 1.582100 2.815430 -0.788235 -4.191209 -11.396310 -4.927920 -19.480547 6.503331 -4.414441 18.832751 4.345600 -2.453400 13.968800 -6.333890 -1.387426 -1.369544 -81.559496 -6.590528 22.612433 16.988433 -23.701425 -4.238845 -1.358198 -2.191168 6.066112 20.679778 23.315318 9.812100 -7.125000 0.000000 0.000000 -8.786100 57.060800 -2.610000 5.338721 1.609400 -1.106817 85.746739 -4.729132 6.071170 -13.414993 19.852300 -2.420325 0.328066 -0.237386 11.346792 -14.902023 8.535031 -2.363200 7.125000 0.000000 0.000000 8.368400 -21.012900 4.862400 
-11.404388 17.901450 -15.288434 2.212295 -1.889892 1.333807 -1.990873 2.298515 3.343591 -20.836645 -3.803686 6.429617 1.802587 9.240811 29.390191 0.877703 -3.490126 22.035450 1.560500 -7.883400 -22.360600 0.385595 -1.308896 0.646211 18.821305 6.417605 -22.118907 -1.434931 -8.452008 24.646383 0.045325 -2.636290 8.185485 -0.197800 -2.863900 7.900000 -2.870386 -0.794527 8.657901 1.839994 -1.192574 1.600271 2.674218 -0.775665 -4.122854 -11.275873 -4.901270 -19.620926 6.422928 -4.399805 18.903848 4.294300 -2.444400 14.023500 -6.345022 -1.375032 -1.373007 -81.551945 -6.317141 22.645764 16.778476 -23.427618 -4.133395 -1.381361 -2.146341 6.000533 20.962880 22.702903 9.730300 -7.125000 0.000000 0.000000 -8.160000 56.454200 -2.302400 5.351248 1.593959 -1.109419 85.664714 -4.616502 6.358925 -13.421820 19.862351 -2.423699 0.328159 -0.228189 11.217923 -14.818600 8.320141 -2.289600 7.125000 0.000000 0.000000 8.436400 -21.245000 4.858000 
-11.424276 17.904748 -15.141123 1.698347 -1.923839 1.304932 -1.963159 2.243736 3.266504 -20.257065 -4.233225 5.257802 2.288109 9.998245 31.972934 0.992333 -5.894316 23.011795 1.830300 -8.503300 -24.253500 0.390833 -1.305186 0.675931 19.559819 5.935190 -21.504330 -1.395990 -8.331804 24.381562 0.002306 -2.226916 7.843825 -0.180400 -2.735500 7.543300 -2.353994 -0.776918 8.661110 1.928220 -1.111175 1.590329 2.519162 -0.732296 -4.151027 -11.244490 -4.894878 -19.453886 6.459362 -4.422137 18.812523 4.299700 -2.447000 13.947300 -6.350948 -1.350540 -1.377598 -81.519691 -5.994029 22.707159 16.626696 -23.233820 -4.059134 -1.367324 -2.162896 6.161537 20.604158 22.901950 9.625600 -7.125000 0.000000 0.000000 -8.660400 56.597600 -2.475100 5.359211 1.593199 -1.105969 85.579071 -4.570030 6.584926 -13.423696 19.866492 -2.425159 0.329074 -0.229423 11.015062 -14.827535 8.393282 -2.311400 7.125000 0.000000 0.000000 8.427200 -21.167500 4.867500 
-11.444164 17.902050 -14.994912 1.321414 -1.763458 1.179460 -1.927456 2.203460 3.189525 -19.789823 -4.872292 4.417563 2.785976 10.712408 34.454237 1.035512 -7.621009 23.653270 1.309400 -7.248600 -20.454000 0.395548 -1.311722 0.710909 20.132474 5.349971 -20.714498 -1.336127 -8.166199 23.968535 -0.034925 -1.902563 7.653086 -0.192900 -2.828500 7.801800 -1.996114 -0.809852 8.763516 2.000641 -1.115677 1.592715 2.433974 -0.730052 -4.199553 -11.168419 -4.875226 -19.332216 6.446855 -4.435869 18.801314 4.277500 -2.448300 13.912300 -6.359161 -1.332123 -1.381746 -81.512632 -5.676162 22.682585 16.462349 -23.021725 -3.978155 -1.366372 -2.172652 6.710372 20.259536 23.180604 9.552500 -7.125000 0.000000 0.000000 -9.188200 56.825700 -2.678500 5.369577 1.587901 -1.103158 85.480832 -4.464939 6.662239 -13.411665 19.852642 -2.421590 0.326246 -0.237944 10.952625 -14.799268 8.650657 -2.377900 7.125000 0.000000 0.000000 8.440900 -20.896200 4.927900 
-11.470148 18.005787 -14.839906 0.841273 -1.670575 1.098939 -1.930535 2.126090 3.013653 -19.155381 -5.718882 2.340612 3.362999 11.497682 36.983247 1.413990 -5.896512 27.319997 0.175500 -2.698500 -7.440500 0.421858 -1.315997 0.775049 20.788843 4.827396 -19.638596 -1.231247 -7.880106 23.224658 -0.051867 -1.681922 7.446532 -0.212400 -2.967300 8.187600 -1.561204 -0.857757 8.901313 2.106403 -1.131811 1.577269 2.377649 -0.730873 -4.279650 -11.250243 -4.889956 -19.233429 6.516740 -4.443216 18.773557 4.322800 -2.453800 13.885800 -6.368723 -1.303804 -1.387987 -81.520107 -5.372271 22.659659 16.287585 -22.791856 -3.892277 -1.347667 -2.203116 7.133556 19.679922 23.628542 9.416500 -7.125000 0.000000 0.000000 -10.077200 57.186600 -3.029300 5.375899 1.596592 -1.095897 85.331368 -4.323640 6.967081 -13.433398 19.890004 -2.430301 0.332797 -0.271126 10.816901 -15.215115 9.565583 -2.708400 7.125000 0.000000 0.000000 8.112900 -19.905100 4.915100 
-11.497032 18.029373 -14.697192 0.509254 -1.724921 1.060099 -1.904693 2.066660 2.898712 -18.688418 -6.060130 0.953784 3.931456 12.172625 39.415266 1.633939 -6.339704 29.348593 0.037700 -1.253700 -3.447100 0.429603 -1.324166 0.817784 21.287180 4.590276 -18.687692 -1.127278 -7.600919 22.478580 -0.062656 -1.536350 7.334695 -0.221700 -3.030900 8.364700 -1.397627 -0.860664 8.977973 2.227597 -1.119566 1.573551 2.490601 -0.720185 -4.318197 -11.450584 -4.907314 -19.237147 6.604256 -4.400223 18.804329 4.405900 -2.448600 13.907100 -6.374895 -1.273908 -1.397428 -81.634765 -5.026668 22.734120 16.167106 -22.635069 -3.834801 -1.332701 -2.224780 7.145478 19.379123 23.812920 9.328400 -7.125000 0.000000 0.000000 -10.517700 57.325200 -3.198900 5.380688 1.598770 -1.088334 85.101720 -4.180454 7.724601 -13.469799 19.943282 -2.441400 0.363806 -0.341357 9.874584 -16.456831 11.617971 -3.572500 7.125000 0.000000 0.000000 7.193600 -17.642400 4.712500 
-11.511923 18.044464 -14.553480 0.269623 -1.515177 0.882833 -1.873452 2.024629 2.783115 -18.400536 -6.660614 -0.102332 4.517459 12.810304 41.766870 1.805972 -6.088236 30.776485 0.004400 0.427300 1.174100 0.443252 -1.338408 0.863513 21.670099 4.075277 -17.604317 -0.998204 -7.254246 21.521396 -0.051430 -1.573736 7.387087 -0.223900 -3.046000 8.406800 -1.130662 -0.916508 9.132335 2.267563 -1.161375 1.622475 2.403971 -0.737795 -4.301204 -11.470568 -4.929315 -19.279734 6.663532 -4.425372 18.818871 4.432500 -2.453200 13.928700 -6.384094 -1.251175 -1.403077 -81.649282 -4.808064 23.070082 16.064497 -22.502261 -3.787516 -1.354765 -2.230590 6.906067 19.697761 23.831754 9.506200 -7.125000 0.000000 0.000000 -10.154300 57.421000 -3.110300 5.381986 1.603057 -1.075900 84.976203 -3.918407 8.159404 -13.394350 19.834673 -2.410104 0.396739 -0.407446 8.708164 -17.620933 13.615490 -4.495400 7.125000 0.000000 0.000000 6.390800 -15.408500 4.491500 
-11.529113 18.056456 -14.412565 0.025623 -1.569177 0.735572 -1.845873 1.981953 2.677000 -18.106777 -7.031457 -1.193639 5.062515 13.356774 43.836777 1.915449 -5.388907 31.552371 0.038100 1.259200 3.462400 0.449168 -1.345709 0.901797 22.059471 3.781317 -16.787137 -0.948481 -7.094491 21.122959 -0.058186 -1.437490 7.154556 -0.204400 -2.910900 8.030900 -0.906196 -0.843468 9.261238 2.294274 -1.039033 1.642487 2.298464 -0.672142 -4.342515 -11.418292 -4.981723 -19.149455 6.671189 -4.533809 18.773150 4.406900 -2.493000 13.890300 -6.390381 -1.233912 -1.405065 -81.605531 -4.580382 23.494656 15.927991 -22.321796 -3.725312 -1.352308 -2.237698 6.805451 19.620543 23.853149 9.477200 -7.125000 0.000000 0.000000 -10.248600 57.430300 -3.142000 5.383803 1.606007 -1.071820 84.909381 -3.819535 8.362781 -13.524823 20.027729 -2.459723 0.396726 -0.401116 8.441448 -17.565679 13.580638 -4.467900 7.125000 0.000000 0.000000 6.429500 -15.454300 4.512700 
-11.549100 18.068949 -14.275048 -0.336264 -1.724239 0.603228 -1.815507 1.935613 2.589600 -17.621373 -7.227283 -2.366917 5.558190 13.835149 45.774374 1.834175 -5.625781 31.043048 0.003400 0.379200 1.041900 0.452053 -1.349388 0.932820 22.587559 3.603144 -15.950864 -0.904789 -6.947255 20.764881 -0.054052 -1.345034 6.802579 -0.247000 -3.197800 8.830000 -0.583603 -0.733523 9.482151 2.333892 -0.854440 1.640962 2.155108 -0.574692 -4.477692 -11.302742 -5.033610 -19.090404 6.648034 -4.655188 18.772853 4.356400 -2.535600 13.890300 -6.397713 -1.225017 -1.405184 -81.517311 -4.402029 23.826314 15.726467 -22.044544 -3.631147 -1.342673 -2.219847 6.998212 19.322798 23.634619 9.248100 -7.125000 0.000000 0.000000 -10.468000 57.128200 -3.133600 5.388612 1.612952 -1.074273 84.915375 -3.716772 8.230138 -13.796511 20.434216 -2.568622 0.363406 -0.357575 9.373452 -16.581296 12.379079 -3.832300 7.125000 0.000000 0.000000 7.111600 -16.827900 4.785600 
